<svg width="30" height="22" viewBox="0 0 30 22" fill="none" xmlns="http://www.w3.org/2000/svg">
<path d="M29.52 2.37061L28.5373 1.38793C28.2285 1.07891 27.8168 0.908905 27.3773 0.908905C26.9378 0.908905 26.5259 1.07891 26.2171 1.38793L12.409 15.1957L3.78195 6.56841C3.47317 6.25988 3.06122 6.08963 2.62171 6.08963C2.18244 6.08963 1.77073 6.25988 1.46171 6.56841L0.47878 7.55085C0.169756 7.86036 0 8.27256 0 8.71158C0 9.15085 0.169756 9.5628 0.47878 9.87183L10.2193 19.6118C10.2322 19.6301 10.2459 19.6472 10.2617 19.6628L11.2446 20.6294C11.5534 20.9372 11.9654 21.0911 12.4083 21.0911H12.4134C12.8532 21.0911 13.2651 20.9372 13.5734 20.6294L14.5566 19.6543C14.5724 19.6386 14.5859 19.6257 14.5939 19.6125L29.5198 4.68817C30.16 4.04939 30.16 3.01012 29.52 2.37061Z" fill="white"/>
</svg>
