<svg width="42" height="42" viewBox="0 0 42 42" fill="none" xmlns="http://www.w3.org/2000/svg">
<g clip-path="url(#clip0_36_144)">
<path d="M38.7643 26.3841C38.1866 26.3841 37.7183 26.8524 37.7183 27.4302V36.7177C37.7163 38.4501 36.3127 39.8541 34.5803 39.8557H5.23009C3.49762 39.8541 2.09408 38.4501 2.09203 36.7177V9.45949C2.09408 7.72743 3.49762 6.32348 5.23009 6.32144H14.5176C15.0953 6.32144 15.5636 5.85318 15.5636 5.27542C15.5636 4.69807 15.0953 4.2294 14.5176 4.2294H5.23009C2.34292 4.23267 0.0032688 6.57232 0 9.45949V36.7181C0.0032688 39.6052 2.34292 41.9449 5.23009 41.9481H34.5803C37.4674 41.9449 39.8071 39.6052 39.8104 36.7181V27.4302C39.8104 26.8524 39.3421 26.3841 38.7643 26.3841Z" fill="#8F8F8F"/>
<path d="M39.3961 1.53795C37.5578 -0.300348 34.5774 -0.300348 32.7391 1.53795L14.0775 20.1996C13.9496 20.3274 13.8573 20.486 13.8091 20.66L11.355 29.5197C11.2541 29.883 11.3567 30.272 11.6231 30.5388C11.8899 30.8052 12.2789 30.9077 12.6421 30.8072L21.5018 28.3528C21.6759 28.3046 21.8344 28.2122 21.9623 28.0843L40.6235 9.4223C42.4589 7.58278 42.4589 4.6049 40.6235 2.76538L39.3961 1.53795ZM16.3567 20.8795L31.6298 5.60597L36.5555 10.5317L21.282 25.8051L16.3567 20.8795ZM15.3728 22.8538L19.308 26.7895L13.8646 28.2976L15.3728 22.8538ZM39.1444 7.94317L38.035 9.05252L33.1089 4.12643L34.2187 3.01708C35.2398 1.99599 36.8954 1.99599 37.9165 3.01708L39.1444 4.24452C40.1638 5.26683 40.1638 6.92126 39.1444 7.94317Z" fill="#8F8F8F"/>
</g>
<defs>
<clipPath id="clip0_36_144">
<rect width="42" height="42" fill="white"/>
</clipPath>
</defs>
</svg>
