<svg width="42" height="42" viewBox="0 0 42 42" fill="none" xmlns="http://www.w3.org/2000/svg">
<g clip-path="url(#clip0_36_168)">
<path d="M26.7933 15.2167C26.25 15.2167 25.8097 15.657 25.8097 16.2003V34.7904C25.8097 35.3333 26.25 35.774 26.7933 35.774C27.3366 35.774 27.7769 35.3333 27.7769 34.7904V16.2003C27.7769 15.657 27.3366 15.2167 26.7933 15.2167Z" fill="#B5B5B5"/>
<path d="M15.1868 15.2167C14.6435 15.2167 14.2032 15.657 14.2032 16.2003V34.7904C14.2032 35.3333 14.6435 35.774 15.1868 35.774C15.73 35.774 16.1704 35.3333 16.1704 34.7904V16.2003C16.1704 15.657 15.73 15.2167 15.1868 15.2167Z" fill="#B5B5B5"/>
<path d="M6.72777 12.5028V36.7368C6.72777 38.1691 7.253 39.5143 8.17051 40.4794C9.0838 41.4473 10.3548 41.9967 11.685 41.999H30.2951C31.6256 41.9967 32.8966 41.4473 33.8095 40.4794C34.727 39.5143 35.2523 38.1691 35.2523 36.7368V12.5028C37.0762 12.0187 38.258 10.2567 38.014 8.38515C37.7697 6.514 36.1755 5.11429 34.2883 5.11391H29.2523V3.8844C29.258 2.85046 28.8492 1.85764 28.1173 1.12724C27.3854 0.39722 26.391 -0.00928491 25.3571 -0.000832066H16.623C15.589 -0.00928491 14.5947 0.39722 13.8627 1.12724C13.1308 1.85764 12.722 2.85046 12.7277 3.8844V5.11391H7.69178C5.80449 5.11429 4.21036 6.514 3.96599 8.38515C3.72201 10.2567 4.90387 12.0187 6.72777 12.5028ZM30.2951 40.0318H11.685C10.0032 40.0318 8.69497 38.5872 8.69497 36.7368V12.5893H33.2851V36.7368C33.2851 38.5872 31.9768 40.0318 30.2951 40.0318ZM14.695 3.8844C14.6884 3.37224 14.8898 2.87928 15.2532 2.51773C15.6163 2.15618 16.1104 1.95754 16.623 1.96637H25.3571C25.8696 1.95754 26.3637 2.15618 26.7268 2.51773C27.0903 2.8789 27.2916 3.37224 27.2851 3.8844V5.11391H14.695V3.8844ZM7.69178 7.08111H34.2883C35.2661 7.08111 36.0587 7.87376 36.0587 8.8516C36.0587 9.82944 35.2661 10.6221 34.2883 10.6221H7.69178C6.71394 10.6221 5.92129 9.82944 5.92129 8.8516C5.92129 7.87376 6.71394 7.08111 7.69178 7.08111Z" fill="#B5B5B5"/>
<path d="M20.99 15.2167C20.4467 15.2167 20.0064 15.657 20.0064 16.2003V34.7904C20.0064 35.3333 20.4467 35.774 20.99 35.774C21.5333 35.774 21.9736 35.3333 21.9736 34.7904V16.2003C21.9736 15.657 21.5333 15.2167 20.99 15.2167Z" fill="#B5B5B5"/>
</g>
<defs>
<clipPath id="clip0_36_168">
<rect width="42" height="42" fill="white"/>
</clipPath>
</defs>
</svg>
