<svg width="40" height="40" viewBox="0 0 40 40" fill="none" xmlns="http://www.w3.org/2000/svg">
<g clip-path="url(#clip0_37_5)">
<path d="M34.1421 5.85781C30.3646 2.08039 25.3422 0 20 0C14.6577 0 9.63523 2.08039 5.85781 5.85781C2.08031 9.63531 0 14.6578 0 20C0 25.3422 2.08031 30.3646 5.85781 34.1421C9.63531 37.9196 14.6577 40 20 40C25.3422 40 30.3646 37.9196 34.1421 34.1421C37.9196 30.3646 40 25.3422 40 20C40 14.6578 37.9196 9.63539 34.1421 5.85781ZM20 37.6562C10.2643 37.6562 2.34375 29.7357 2.34375 20C2.34375 10.2643 10.2643 2.34375 20 2.34375C29.7357 2.34375 37.6562 10.2643 37.6562 20C37.6562 29.7357 29.7357 37.6562 20 37.6562Z" fill="#8F8F8F"/>
<path d="M29.555 13.5827C29.0974 13.1252 28.3554 13.1252 27.8978 13.5828L17.5495 23.9312L12.1021 18.4838C11.6445 18.0262 10.9025 18.0262 10.4448 18.4838C9.98715 18.9413 9.98715 19.6834 10.4448 20.141L16.7208 26.417C16.9496 26.6459 17.2496 26.7602 17.5494 26.7602C17.8493 26.7602 18.1493 26.6458 18.378 26.417L29.555 15.24C30.0127 14.7824 30.0127 14.0404 29.555 13.5827Z" fill="#8F8F8F"/>
</g>
<defs>
<clipPath id="clip0_37_5">
<rect width="40" height="40" fill="white"/>
</clipPath>
</defs>
</svg>
