<svg width="38" height="38" viewBox="0 0 38 38" fill="none" xmlns="http://www.w3.org/2000/svg">
<g clip-path="url(#clip0_36_140)">
<path d="M21.0991 19.0008L37.565 2.53481C38.1447 1.95509 38.1447 1.01519 37.565 0.435539C36.9853 -0.144109 36.0454 -0.144183 35.4657 0.435539L18.9997 16.9015L2.53382 0.435539C1.9541 -0.144183 1.01419 -0.144183 0.434547 0.435539C-0.1451 1.01526 -0.145175 1.95517 0.434547 2.53481L16.9005 19.0007L0.434547 35.4667C-0.145175 36.0465 -0.145175 36.9864 0.434547 37.566C0.72437 37.8558 1.1043 38.0007 1.48422 38.0007C1.86415 38.0007 2.244 37.8558 2.53389 37.566L18.9997 21.1001L35.4656 37.566C35.7555 37.8558 36.1354 38.0007 36.5153 38.0007C36.8952 38.0007 37.2751 37.8558 37.565 37.566C38.1447 36.9863 38.1447 36.0464 37.565 35.4667L21.0991 19.0008Z" fill="#8F8F8F"/>
</g>
<defs>
<clipPath id="clip0_36_140">
<rect width="38" height="38" fill="white"/>
</clipPath>
</defs>
</svg>
